<svg xmlns="http://www.w3.org/2000/svg" role="img" width="500" height="800" aria-labelledby="loading-aria"
    viewBox="0 0 500 800" preserveAspectRatio="none">
    <title id="loading-aria">Loading...</title>
    <style>
        @media (prefers-color-scheme: dark) {
            stop-color {
                fill: black;
            }
        }
    </style>
    <rect x="0" y="0" width="100%" height="100%" clip-path="url(#clip-path)" style="fill: url(&quot;#fill&quot;);" />
    <defs>
        <clipPath id="clip-path">
            <rect x="0" y="0" rx="2" ry="2" width="505" height="505" />
            <rect x="0" y="623" rx="0" ry="0" width="480" height="18" />
            <rect x="0" y="568" rx="0" ry="0" width="154" height="21" />
            <rect x="-10" y="433" rx="2" ry="2" width="365" height="1" />
            <rect x="60" y="756" rx="0" ry="0" width="164" height="27" />
            <rect x="277" y="763" rx="0" ry="0" width="179" height="14" />
            <circle cx="20" cy="769" r="18" />
            <circle cx="250" cy="770" r="4" />
            <rect x="0" y="664" rx="0" ry="0" width="365" height="18" />
            <rect x="0" y="705" rx="0" ry="0" width="193" height="18" />
        </clipPath>
        <linearGradient id="fill">
            <stop offset="0.599964" stop-color="#f0f0f0" stop-opacity="1">
                <animate attributeName="offset" values="-2; -2; 1" keyTimes="0; 0.25; 1" dur="2s"
                    repeatCount="indefinite" />
            </stop>
            <stop offset="1.59996" stop-color="#f7f7f7" stop-opacity="1">
                <animate attributeName="offset" values="-1; -1; 2" keyTimes="0; 0.25; 1" dur="2s"
                    repeatCount="indefinite" />
            </stop>
            <stop offset="2.59996" stop-color="#f0f0f0" stop-opacity="1">
                <animate attributeName="offset" values="0; 0; 3" keyTimes="0; 0.25; 1" dur="2s"
                    repeatCount="indefinite" />
            </stop>
        </linearGradient>
    </defs>
</svg>